<?xml version="1.0" standalone="no"?>
<!DOCTYPE svg PUBLIC "-//W3C//DTD SVG 20010904//EN"
 "http://www.w3.org/TR/2001/REC-SVG-20010904/DTD/svg10.dtd">
<svg version="1.0" xmlns="http://www.w3.org/2000/svg"
 width="512.000000pt" height="512.000000pt" viewBox="0 0 512.000000 512.000000"
 preserveAspectRatio="xMidYMid meet">
<metadata>
Created by potrace 1.11, written by Peter Selinger 2001-2013
</metadata>
<g transform="translate(0.000000,512.000000) scale(0.100000,-0.100000)"
fill="#000000" stroke="none">
<path d="M0 2560 l0 -2560 2560 0 2560 0 0 2215 0 2215 -345 0 -345 0 0 345 0
345 -2215 0 -2215 0 0 -2560z m3980 1765 l0 -345 345 0 345 0 0 -1765 0 -1765
-2110 0 -2110 0 0 2110 0 2110 1765 0 1765 0 0 -345z"/>
<path d="M880 3710 l0 -460 604 -2 603 -3 -578 -734 -579 -734 0 -409 0 -408
1180 0 1180 0 0 460 0 460 -575 0 c-316 0 -575 2 -575 5 0 2 259 332 575 732
l574 728 1 413 0 412 -1205 0 -1205 0 0 -460z"/>
<path d="M3723 1563 c-13 -2 -32 -16 -43 -30 -19 -24 -20 -40 -20 -264 0 -260
4 -281 53 -299 40 -14 564 -14 604 0 49 18 53 39 53 300 0 238 0 239 -24 267
l-24 28 -289 1 c-158 1 -298 0 -310 -3z"/>
</g>
</svg>
